<svg width="40" height="40" viewBox="0 0 40 40" fill="none" xmlns="http://www.w3.org/2000/svg">
<rect width="40" height="40" rx="20" fill="#EAFAF9"/>
<path d="M25.4264 29.5775H14.5737C10.6124 29.5775 8.33337 27.2985 8.33337 23.3372V15.7403C8.33337 11.7791 10.6124 9.5 14.5737 9.5H25.4264C29.3876 9.5 31.6667 11.7791 31.6667 15.7403V23.3372C31.6667 27.2985 29.3876 29.5775 25.4264 29.5775ZM14.5737 11.1279C11.4698 11.1279 9.96128 12.6364 9.96128 15.7403V23.3372C9.96128 26.4411 11.4698 27.9496 14.5737 27.9496H25.4264C28.5303 27.9496 30.0388 26.4411 30.0388 23.3372V15.7403C30.0388 12.6364 28.5303 11.1279 25.4264 11.1279H14.5737Z" fill="#25A79C"/>
<path d="M19.9998 20.4829C19.0882 20.4829 18.1657 20.2007 17.4603 19.6256L14.0634 16.9124C13.7161 16.6302 13.651 16.1201 13.9331 15.7728C14.2153 15.4255 14.7254 15.3604 15.0727 15.6426L18.4696 18.3558C19.2944 19.0178 20.6944 19.0178 21.5192 18.3558L24.9161 15.6426C25.2634 15.3604 25.7843 15.4147 26.0556 15.7728C26.3378 16.1201 26.2835 16.6411 25.9254 16.9124L22.5285 19.6256C21.8339 20.2007 20.9114 20.4829 19.9998 20.4829Z" fill="#25A79C"/>
</svg>
