<svg width="48" height="48" viewBox="0 0 48 48" fill="none" xmlns="http://www.w3.org/2000/svg">
<rect width="48" height="48" rx="24" fill="#F9F3EC"/>
<path fill-rule="evenodd" clip-rule="evenodd" d="M24 12.5272C17.6672 12.5272 12.5271 17.6673 12.5271 24.0001C12.5271 30.3328 17.6672 35.473 24 35.473C30.3328 35.473 35.4729 30.3328 35.4729 24.0001C35.4729 23.4863 35.8893 23.0698 36.4031 23.0698C36.9168 23.0698 37.3333 23.4863 37.3333 24.0001C37.3333 31.3603 31.3603 37.3334 24 37.3334C16.6397 37.3334 10.6667 31.3603 10.6667 24.0001C10.6667 16.6398 16.6397 10.6667 24 10.6667C24.5137 10.6667 24.9302 11.0832 24.9302 11.597C24.9302 12.1107 24.5137 12.5272 24 12.5272Z" fill="#C89451"/>
<path fill-rule="evenodd" clip-rule="evenodd" d="M30.5116 11.597C30.5116 11.0832 30.9281 10.6667 31.4419 10.6667H36.4031C36.9168 10.6667 37.3333 11.0832 37.3333 11.597V16.5582C37.3333 17.072 36.9168 17.4885 36.4031 17.4885C35.8893 17.4885 35.4729 17.072 35.4729 16.5582V12.5272H31.4419C30.9281 12.5272 30.5116 12.1107 30.5116 11.597Z" fill="#C89451"/>
<path fill-rule="evenodd" clip-rule="evenodd" d="M37.0609 10.9392C37.4241 11.3025 37.4241 11.8915 37.0609 12.2548L30.8593 18.4563C30.496 18.8196 29.907 18.8196 29.5438 18.4563C29.1805 18.093 29.1805 17.504 29.5438 17.1408L35.7453 10.9392C36.1086 10.5759 36.6976 10.5759 37.0609 10.9392Z" fill="#C89451"/>
<path d="M19.0388 20.6428H24.8937V22.0922C24.8937 22.1888 24.8937 22.2854 24.8937 22.3627H19.0388V23.9474H24.8025C24.5107 25.7639 23.471 25.9185 19.8048 25.9185V28.566C19.8048 31.1556 21.1181 32.6823 23.5987 32.6823C26.0246 32.6823 27.3744 31.3682 27.4108 28.74H25.4957C25.4957 30.0734 25.0032 30.9623 23.6352 30.9623C22.176 30.9623 21.7565 29.9574 21.7565 28.6627V27.4452C24.9667 27.4452 26.3347 26.5176 26.736 23.9474H28.9612V22.3627H26.8454C26.8454 22.2854 26.8454 22.1888 26.8454 22.0922V20.6428H28.9612V19.0388H19.0388V20.6428Z" fill="#C89451"/>
</svg>
