<svg width="41" height="40" viewBox="0 0 41 40" fill="none" xmlns="http://www.w3.org/2000/svg">
<rect x="0.5" width="40" height="40" rx="20" fill="#EAFAF9"/>
<path d="M16.1588 30.7224C15.855 30.7224 15.5402 30.6465 15.258 30.4945C14.6394 30.169 14.2596 29.5177 14.2596 28.8232V27.2822C10.9821 26.9457 8.83325 24.5363 8.83325 21.0852V14.5736C8.83325 10.8403 11.3402 8.33331 15.0736 8.33331H25.9263C29.6596 8.33331 32.1666 10.8403 32.1666 14.5736V21.0852C32.1666 24.8185 29.6596 27.3255 25.9263 27.3255H21.8348L17.2115 30.4078C16.8968 30.614 16.5278 30.7224 16.1588 30.7224ZM15.0736 9.95036C12.2736 9.95036 10.4612 11.7628 10.4612 14.5628V21.0745C10.4612 23.8745 12.2736 25.6869 15.0736 25.6869C15.5185 25.6869 15.8875 26.0558 15.8875 26.5008V28.8124C15.8875 28.9535 15.9743 29.0186 16.0286 29.0512C16.0829 29.0837 16.1914 29.1163 16.3108 29.0403L21.1403 25.8279C21.2705 25.7411 21.4333 25.6869 21.5961 25.6869H25.9371C28.7371 25.6869 30.5495 23.8745 30.5495 21.0745V14.5628C30.5495 11.7628 28.7371 9.95036 25.9371 9.95036H15.0736Z" fill="#25A79C"/>
<path d="M20.4997 19.6419C20.0548 19.6419 19.6858 19.2729 19.6858 18.8279V18.6001C19.6858 17.3412 20.6082 16.7225 20.9555 16.4838C21.3571 16.2125 21.4873 16.028 21.4873 15.7458C21.4873 15.2032 21.0424 14.7582 20.4997 14.7582C19.9571 14.7582 19.5122 15.2032 19.5122 15.7458C19.5122 16.1908 19.1432 16.5598 18.6982 16.5598C18.2532 16.5598 17.8842 16.1908 17.8842 15.7458C17.8842 14.3024 19.0563 13.1303 20.4997 13.1303C21.9431 13.1303 23.1152 14.3024 23.1152 15.7458C23.1152 16.983 22.2036 17.6016 21.8672 17.8295C21.4439 18.1117 21.3137 18.2962 21.3137 18.6001V18.8279C21.3137 19.2837 20.9447 19.6419 20.4997 19.6419Z" fill="#25A79C"/>
<path d="M20.4999 22.3442C20.0441 22.3442 19.686 21.9752 19.686 21.5302C19.686 21.0853 20.055 20.7163 20.4999 20.7163C20.9449 20.7163 21.3139 21.0853 21.3139 21.5302C21.3139 21.9752 20.9557 22.3442 20.4999 22.3442Z" fill="#25A79C"/>
</svg>
