<svg width="41" height="40" viewBox="0 0 41 40" fill="none" xmlns="http://www.w3.org/2000/svg">
<rect x="0.5" width="40" height="40" rx="20" fill="#EAFAF9"/>
<path fill-rule="evenodd" clip-rule="evenodd" d="M8.83325 12.4819C8.83325 10.7178 10.2893 9.3631 12.0583 9.51106C14.4661 9.70629 18.0366 10.8964 20.078 12.1674L20.3534 12.3326C20.3562 12.3339 20.3677 12.3392 20.3898 12.3447C20.4193 12.352 20.4574 12.3571 20.4999 12.3571C20.5424 12.3571 20.5805 12.352 20.6101 12.3447C20.631 12.3394 20.6424 12.3344 20.6459 12.3328L20.8261 12.2162C22.8678 10.9316 26.4546 9.72856 28.863 9.52213C28.8861 9.52015 28.9093 9.51916 28.9325 9.51916H28.9659C30.7115 9.39247 32.1666 10.7219 32.1666 12.4928V25.592C32.1666 27.038 31.0207 28.3666 29.5652 28.5485L29.5622 28.5489L29.2088 28.5917C26.9454 28.8938 23.4037 30.0637 21.4087 31.1637C21.1145 31.331 20.7807 31.3901 20.4931 31.3901C20.2074 31.3901 19.8814 31.3318 19.5912 31.1756L19.5607 31.1604C19.5518 31.1559 19.5429 31.1513 19.5342 31.1465C17.5379 30.0547 13.998 28.8925 11.7425 28.5911L11.7391 28.5906L11.4291 28.5478C9.97625 28.3632 8.83325 27.0362 8.83325 25.592V12.4819ZM11.9232 11.1334C11.1098 11.065 10.4612 11.6636 10.4612 12.4819V25.592C10.4612 26.2298 11.0083 26.8547 11.6365 26.9332L11.6468 26.9345L11.9581 26.9775L11.9599 26.9777C14.4094 27.3054 18.1294 28.5261 20.3019 29.7109L20.3321 29.726C20.3422 29.7311 20.3523 29.7363 20.3622 29.7418C20.3622 29.7418 20.3726 29.7467 20.3956 29.752C20.4223 29.758 20.4561 29.7622 20.4931 29.7622C20.5303 29.7622 20.5624 29.758 20.586 29.7526C20.5982 29.7498 20.6054 29.7472 20.6081 29.7462L20.6165 29.7413C22.7886 28.5422 26.5321 27.3056 28.9988 26.9774L29.0082 26.9762L29.3633 26.9332L29.3645 26.933C29.9923 26.8538 30.5387 26.2293 30.5387 25.592V12.4928C30.5387 11.6714 29.887 11.0752 29.0658 11.1442C29.0431 11.1461 29.0203 11.1471 28.9976 11.1471H28.9681C26.8189 11.3399 23.5106 12.452 21.6973 13.5915L21.5044 13.7163C21.1879 13.9128 20.8204 13.9851 20.4999 13.9851C20.1815 13.9851 19.8168 13.9136 19.5016 13.7199L19.2226 13.5526C17.3998 12.4159 14.0737 11.3074 11.9257 11.1336L11.9232 11.1334Z" fill="#25A79C"/>
<path fill-rule="evenodd" clip-rule="evenodd" d="M20.4999 12.5688C20.9495 12.5688 21.3139 12.9332 21.3139 13.3827V29.6618C21.3139 30.1113 20.9495 30.4757 20.4999 30.4757C20.0504 30.4757 19.686 30.1113 19.686 29.6618V13.3827C19.686 12.9332 20.0504 12.5688 20.4999 12.5688Z" fill="#25A79C"/>
<path fill-rule="evenodd" clip-rule="evenodd" d="M12.6317 16.6385C12.6317 16.189 12.9961 15.8246 13.4457 15.8246H15.8875C16.337 15.8246 16.7015 16.189 16.7015 16.6385C16.7015 17.0881 16.337 17.4525 15.8875 17.4525H13.4457C12.9961 17.4525 12.6317 17.0881 12.6317 16.6385Z" fill="#25A79C"/>
<path fill-rule="evenodd" clip-rule="evenodd" d="M12.6317 19.8944C12.6317 19.4448 12.9961 19.0804 13.4457 19.0804H16.7015C17.151 19.0804 17.5154 19.4448 17.5154 19.8944C17.5154 20.3439 17.151 20.7083 16.7015 20.7083H13.4457C12.9961 20.7083 12.6317 20.3439 12.6317 19.8944Z" fill="#25A79C"/>
</svg>
