<svg width="41" height="40" viewBox="0 0 41 40" fill="none" xmlns="http://www.w3.org/2000/svg">
<rect x="0.5" width="40" height="40" rx="20" fill="#EAFAF9"/>
<path d="M23.7557 31.6666H17.2441C11.3511 31.6666 8.83325 29.1488 8.83325 23.2558V16.7442C8.83325 10.8511 11.3511 8.33331 17.2441 8.33331H22.6705C23.1154 8.33331 23.4844 8.70231 23.4844 9.14727C23.4844 9.59223 23.1154 9.96122 22.6705 9.96122H17.2441C12.241 9.96122 10.4612 11.7411 10.4612 16.7442V23.2558C10.4612 28.2589 12.241 30.0387 17.2441 30.0387H23.7557C28.7588 30.0387 30.5387 28.2589 30.5387 23.2558V17.8294C30.5387 17.3845 30.9077 17.0155 31.3526 17.0155C31.7976 17.0155 32.1666 17.3845 32.1666 17.8294V23.2558C32.1666 29.1488 29.6488 31.6666 23.7557 31.6666Z" fill="#25A79C"/>
<path d="M31.3526 18.6434H27.0115C23.2999 18.6434 21.8565 17.2 21.8565 13.4884V9.14727C21.8565 8.82168 22.0519 8.51781 22.3557 8.39843C22.6596 8.2682 23.0069 8.34417 23.2457 8.57207L31.9278 17.2542C32.1557 17.4822 32.2317 17.8403 32.1015 18.1442C31.9712 18.448 31.6782 18.6434 31.3526 18.6434ZM23.4844 11.1116V13.4884C23.4844 16.2884 24.2115 17.0155 27.0115 17.0155H29.3883L23.4844 11.1116Z" fill="#25A79C"/>
<path d="M21.5852 21.8992H15.0736C14.6286 21.8992 14.2596 21.5302 14.2596 21.0852C14.2596 20.6403 14.6286 20.2713 15.0736 20.2713H21.5852C22.0302 20.2713 22.3991 20.6403 22.3991 21.0852C22.3991 21.5302 22.0302 21.8992 21.5852 21.8992Z" fill="#25A79C"/>
<path d="M19.4146 26.2403H15.0736C14.6286 26.2403 14.2596 25.8713 14.2596 25.4263C14.2596 24.9814 14.6286 24.6124 15.0736 24.6124H19.4146C19.8596 24.6124 20.2286 24.9814 20.2286 25.4263C20.2286 25.8713 19.8596 26.2403 19.4146 26.2403Z" fill="#25A79C"/>
</svg>
