<svg width="40" height="40" viewBox="0 0 40 40" fill="none" xmlns="http://www.w3.org/2000/svg">
<rect width="40" height="40" rx="20" fill="#EAFAF9"/>
<path d="M25.9148 31.6666C24.6884 31.6666 23.3969 31.3736 22.0621 30.8093C20.7597 30.2558 19.4466 29.4961 18.1659 28.5736C16.8962 27.6403 15.6698 26.5984 14.5086 25.4589C13.3582 24.2977 12.3163 23.0713 11.3938 21.8124C10.4605 20.5101 9.71167 19.2077 9.17989 17.9488C8.61554 16.6031 8.33337 15.3008 8.33337 14.0744C8.33337 13.2279 8.48531 12.4248 8.77834 11.6759C9.08221 10.9054 9.57058 10.1891 10.2326 9.57052C11.0683 8.74572 12.0233 8.33331 13.0435 8.33331C13.4667 8.33331 13.9008 8.43099 14.2698 8.60463C14.6931 8.79998 15.0512 9.093 15.3117 9.4837L17.8295 13.0325C18.0574 13.3473 18.231 13.6511 18.3504 13.955C18.4915 14.2806 18.5675 14.6062 18.5675 14.9209C18.5675 15.3333 18.4481 15.7349 18.2202 16.1147C18.0574 16.4077 17.8078 16.7225 17.4931 17.0372L16.7551 17.8077C16.7659 17.8403 16.7768 17.862 16.7876 17.8837C16.9179 18.1116 17.1783 18.5023 17.6776 19.0884C18.2093 19.6961 18.7086 20.2496 19.2078 20.7597C19.8481 21.3891 20.3799 21.8884 20.8791 22.3008C21.4977 22.8217 21.8993 23.0821 22.138 23.2015L22.1163 23.2558L22.9086 22.4744C23.245 22.138 23.5706 21.8884 23.8853 21.7256C24.4822 21.3566 25.2419 21.2915 26.0016 21.6062C26.2838 21.7256 26.5876 21.8884 26.9132 22.1163L30.5163 24.6775C30.9179 24.9488 31.2109 25.2961 31.3845 25.7085C31.5473 26.1209 31.6233 26.5008 31.6233 26.8806C31.6233 27.4015 31.5039 27.9225 31.276 28.4108C31.0481 28.8992 30.7659 29.3225 30.4078 29.7132C29.7892 30.3969 29.1163 30.8852 28.3349 31.2C27.5861 31.5039 26.7721 31.6666 25.9148 31.6666ZM13.0435 9.96122C12.4466 9.96122 11.8931 10.2217 11.3613 10.7426C10.8621 11.2093 10.5148 11.7194 10.2977 12.2728C10.0698 12.8372 9.96128 13.4341 9.96128 14.0744C9.96128 15.0837 10.2 16.1798 10.6776 17.3085C11.1659 18.4589 11.8497 19.6527 12.7179 20.8465C13.5861 22.0403 14.5737 23.2015 15.659 24.2977C16.7442 25.3721 17.9163 26.3705 19.121 27.2496C20.2931 28.107 21.4977 28.8015 22.6915 29.3008C24.5473 30.093 26.2838 30.2775 27.7163 29.6806C28.2698 29.4527 28.7582 29.1054 29.2031 28.6062C29.4528 28.3349 29.6481 28.0418 29.8109 27.6946C29.9411 27.4232 30.0062 27.1411 30.0062 26.8589C30.0062 26.6852 29.9737 26.5116 29.8869 26.3163C29.8543 26.2511 29.7892 26.1318 29.583 25.9907L25.9799 23.4294C25.7628 23.2775 25.5675 23.169 25.383 23.093C25.1442 22.9953 25.0466 22.8977 24.6776 23.1256C24.4605 23.2341 24.2652 23.3969 24.0481 23.6139L23.2233 24.4279C22.8 24.8403 22.1489 24.938 21.6497 24.7535L21.3566 24.6232C20.9117 24.3845 20.3907 24.0155 19.8155 23.5271C19.2946 23.0821 18.7303 22.5612 18.0466 21.8884C17.5148 21.3457 16.983 20.7705 16.4295 20.1302C15.9194 19.5333 15.5504 19.0232 15.3225 18.6L15.1923 18.2744C15.1272 18.0248 15.1055 17.8837 15.1055 17.7318C15.1055 17.3411 15.2466 16.9938 15.5179 16.7225L16.3318 15.8759C16.5489 15.6589 16.7117 15.4527 16.8202 15.2682C16.907 15.1271 16.9396 15.0077 16.9396 14.8992C16.9396 14.8124 16.907 14.6821 16.8528 14.5519C16.7768 14.3783 16.6574 14.1829 16.5055 13.9767L13.9876 10.417C13.8791 10.2651 13.7489 10.1566 13.5861 10.0806C13.4124 10.0046 13.2279 9.96122 13.0435 9.96122ZM22.1163 23.2666L21.9427 24.0046L22.2357 23.2449C22.1814 23.2341 22.138 23.2449 22.1163 23.2666Z" fill="#25A79C"/>
</svg>
