<svg width="40" height="40" viewBox="0 0 40 40" fill="none" xmlns="http://www.w3.org/2000/svg">
<rect width="40" height="40" rx="20" fill="#EAFAF9"/>
<path d="M19.6847 33.3333C13.2345 33.3333 7.99997 28.0863 7.99997 21.6486C7.99997 19.329 8.6822 17.0838 9.97223 15.1488C10.2575 14.7271 10.8405 14.603 11.2623 14.8883C11.684 15.1736 11.808 15.7566 11.5227 16.1783C10.4436 17.7909 9.873 19.6887 9.873 21.6362C9.873 27.0568 14.2765 31.4603 19.6971 31.4603C25.1177 31.4603 29.5212 27.0568 29.5212 21.6362C29.5212 16.2156 25.1053 11.8121 19.6847 11.8121C18.5435 11.8121 17.4271 11.9733 16.3728 12.2958C15.8766 12.4447 15.3556 12.1718 15.2068 11.6756C15.0579 11.1795 15.3308 10.6585 15.827 10.5096C17.0674 10.1375 18.3574 9.93905 19.6847 9.93905C26.1348 9.93905 31.3694 15.186 31.3694 21.6238C31.3694 28.0615 26.1348 33.3333 19.6847 33.3333Z" fill="#25A79C"/>
<path d="M14.5618 12.6432C14.3509 12.6432 14.1276 12.5687 13.954 12.4199C13.557 12.0726 13.5198 11.4896 13.8547 11.105L17.4395 6.98686C17.7744 6.60233 18.3698 6.55272 18.7544 6.90003C19.1389 7.23494 19.1761 7.83034 18.8412 8.21487L15.2564 12.3206C15.0703 12.5315 14.8099 12.6432 14.5618 12.6432Z" fill="#25A79C"/>
<path d="M18.742 15.6946C18.5559 15.6946 18.3574 15.6326 18.1962 15.5209L14.0036 12.4571C13.5942 12.1594 13.5074 11.5764 13.8051 11.1671C14.1028 10.7453 14.6858 10.6585 15.1076 10.9562L19.2878 14.0076C19.6971 14.3053 19.7963 14.8883 19.4862 15.3101C19.3126 15.5705 19.0273 15.6946 18.742 15.6946Z" fill="#25A79C"/>
<path d="M16 18.7441H20.7206V20.0188C20.7206 20.1038 20.7206 20.1888 20.7206 20.2568H16V21.6506H20.6471C20.4118 23.2483 19.5735 23.3843 16.6176 23.3843V25.7129C16.6176 27.9905 17.6765 29.3333 19.6765 29.3333C21.6323 29.3333 22.7206 28.1775 22.75 25.8659H21.2059C21.2059 27.0387 20.8088 27.8205 19.7059 27.8205C18.5294 27.8205 18.1912 26.9367 18.1912 25.7979V24.7271C20.7794 24.7271 21.8823 23.9112 22.2059 21.6506H24V20.2568H22.2941C22.2941 20.1888 22.2941 20.1038 22.2941 20.0188V18.7441H24V17.3333H16V18.7441Z" fill="#25A79C"/>
</svg>
