<svg width="40" height="40" viewBox="0 0 40 40" fill="none" xmlns="http://www.w3.org/2000/svg">
<rect width="40" height="40" rx="20" fill="#FFF7E6"/>
<path fill-rule="evenodd" clip-rule="evenodd" d="M14.1598 9.93072C14.8341 9.48618 15.7101 9.25 16.76 9.25H23.24C24.2899 9.25 25.1659 9.48618 25.8402 9.93072C26.521 10.3796 26.9547 11.0149 27.1456 11.7254C27.5212 13.1239 26.9442 14.7056 25.7638 15.7756L21.1152 20L25.7637 24.2243C26.9439 25.2943 27.5212 26.8762 27.1456 28.2746C26.9547 28.9851 26.521 29.6204 25.8402 30.0693C25.1659 30.5138 24.2899 30.75 23.24 30.75H16.76C15.7101 30.75 14.8341 30.5138 14.1598 30.0693C13.479 29.6204 13.0453 28.9851 12.8544 28.2746C12.4789 26.8764 13.0556 25.2949 14.2356 24.2249L18.8848 20L14.2363 15.7757C13.0561 14.7057 12.4788 13.1238 12.8544 11.7254C13.0453 11.0149 13.479 10.3796 14.1598 9.93072ZM20 18.9866L24.7556 14.6649C25.6051 13.8949 25.8988 12.8661 25.6969 12.1146C25.599 11.7501 25.3821 11.4254 25.0145 11.183C24.6403 10.9363 24.0701 10.75 23.24 10.75H16.76C15.9299 10.75 15.3597 10.9363 14.9855 11.183C14.6179 11.4254 14.401 11.7501 14.3031 12.1146C14.1012 12.8661 14.3941 13.8943 15.2437 14.6643L20 18.9866ZM20 21.0134L15.2444 25.3351C14.3949 26.1051 14.1012 27.1339 14.3031 27.8854C14.401 28.2499 14.6179 28.5746 14.9855 28.817C15.3597 29.0637 15.9299 29.25 16.76 29.25H23.24C24.0701 29.25 24.6403 29.0637 25.0145 28.817C25.3821 28.5746 25.599 28.2499 25.6969 27.8854C25.8988 27.1339 25.6059 26.1057 24.7563 25.3357L20 21.0134Z" fill="#FFB319"/>
</svg>
