<svg width="18" height="11" viewBox="0 0 18 11" fill="none" xmlns="http://www.w3.org/2000/svg">
<path d="M1.8535 10.3202C1.55182 10.3202 1.25015 10.2091 1.01199 9.97094C0.551545 9.5105 0.551545 8.74838 1.01199 8.28793L6.09277 3.20715C6.34681 2.95311 6.68024 2.82609 7.04542 2.85785C7.39473 2.8896 7.71227 3.08013 7.91868 3.3818L9.64932 5.9857L15.2858 0.349211C15.7463 -0.111235 16.5084 -0.111235 16.9688 0.349211C17.4293 0.809657 17.4293 1.57177 16.9688 2.03222L10.3003 8.70075C10.0463 8.95479 9.71283 9.08181 9.34765 9.05005C8.99835 9.0183 8.6808 8.82777 8.47439 8.5261L6.74375 5.92219L2.695 9.97094C2.45684 10.2091 2.15517 10.3202 1.8535 10.3202Z" fill="#25A79C"/>
<path d="M16.1425 5.55711C15.4915 5.55711 14.9517 5.01727 14.9517 4.3663V2.38162H12.967C12.3161 2.38162 11.7762 1.84178 11.7762 1.19081C11.7762 0.539833 12.3161 0 12.967 0H16.1425C16.7935 0 17.3333 0.539833 17.3333 1.19081V4.3663C17.3333 5.01727 16.7935 5.55711 16.1425 5.55711Z" fill="#25A79C"/>
</svg>
