<svg width="18" height="11" viewBox="0 0 18 11" fill="none" xmlns="http://www.w3.org/2000/svg">
<path d="M1.8535 4.76837e-06C1.55182 4.76837e-06 1.25015 0.111147 1.01199 0.349309C0.551545 0.809754 0.551545 1.57187 1.01199 2.03232L6.09277 7.1131C6.34681 7.36714 6.68024 7.49416 7.04542 7.4624C7.39473 7.43065 7.71227 7.24012 7.91868 6.93845L9.64932 4.33455L15.2858 9.97104C15.7463 10.4315 16.5084 10.4315 16.9688 9.97104C17.4293 9.51059 17.4293 8.74848 16.9688 8.28803L10.3003 1.6195C10.0463 1.36547 9.71283 1.23845 9.34765 1.2702C8.99835 1.30196 8.6808 1.49249 8.47439 1.79416L6.74375 4.39806L2.695 0.349309C2.45684 0.111147 2.15517 4.76837e-06 1.8535 4.76837e-06Z" fill="#E5666D"/>
<path d="M16.1425 4.76315C15.4915 4.76315 14.9517 5.30298 14.9517 5.95395V7.93863H12.967C12.3161 7.93863 11.7762 8.47847 11.7762 9.12944C11.7762 9.78042 12.3161 10.3203 12.967 10.3203H16.1425C16.7935 10.3203 17.3333 9.78042 17.3333 9.12944V5.95395C17.3333 5.30298 16.7935 4.76315 16.1425 4.76315Z" fill="#E5666D"/>
</svg>
