<svg width="28" height="28" viewBox="0 0 28 28" fill="none" xmlns="http://www.w3.org/2000/svg">
<path d="M19.4263 25.6639H8.57362C4.84029 25.6639 2.33331 23.157 2.33331 19.4236V13.9973C2.33331 10.6546 4.39533 8.2345 7.59688 7.83295C7.90075 7.78954 8.23719 7.75697 8.57362 7.75697H19.4263C19.6868 7.75697 20.0232 7.76782 20.3705 7.82209C23.5721 8.19108 25.6666 10.6221 25.6666 13.9973V19.4236C25.6666 23.157 23.1597 25.6639 19.4263 25.6639ZM8.57362 9.38488C8.31316 9.38488 8.06355 9.40657 7.81393 9.43913C5.42634 9.74301 3.96122 11.4795 3.96122 13.9973V19.4236C3.96122 22.2236 5.77362 24.036 8.57362 24.036H19.4263C22.2263 24.036 24.0387 22.2236 24.0387 19.4236V13.9973C24.0387 11.4577 22.5519 9.71047 20.1426 9.4283C19.8822 9.38489 19.6542 9.38488 19.4263 9.38488H8.57362Z" fill="#FF704D"/>
<path d="M7.6946 9.45001C7.43414 9.45001 7.19538 9.33063 7.03259 9.11358C6.84809 8.86396 6.82639 8.53838 6.96747 8.26707C7.15197 7.89807 7.41243 7.53993 7.74887 7.21435L11.276 3.67636C13.0775 1.88566 16.0078 1.88566 17.8093 3.67636L19.7086 5.59731C20.5117 6.38955 21 7.45312 21.0543 8.5818C21.0651 8.83142 20.9675 9.07015 20.783 9.23294C20.5985 9.39573 20.3489 9.47172 20.1101 9.42831C19.8931 9.39576 19.6651 9.38488 19.4263 9.38488H8.57362C8.31316 9.38488 8.06355 9.40657 7.81393 9.43913C7.78138 9.44998 7.73802 9.45001 7.6946 9.45001ZM9.50701 7.75699H19.231C19.09 7.38799 18.862 7.05157 18.5582 6.74769L16.6481 4.81591C15.4869 3.66552 13.5876 3.66552 12.4155 4.81591L9.50701 7.75699Z" fill="#FF704D"/>
<path d="M24.8527 19.695H21.5969C19.9473 19.695 18.6124 18.3601 18.6124 16.7105C18.6124 15.0608 19.9473 13.726 21.5969 13.726H24.8527C25.2977 13.726 25.6666 14.095 25.6666 14.5399C25.6666 14.9849 25.2977 15.3539 24.8527 15.3539H21.5969C20.848 15.3539 20.2403 15.9616 20.2403 16.7105C20.2403 17.4593 20.848 18.0671 21.5969 18.0671H24.8527C25.2977 18.0671 25.6666 18.436 25.6666 18.881C25.6666 19.326 25.2977 19.695 24.8527 19.695Z" fill="#FF704D"/>
</svg>
