<svg width="40" height="40" viewBox="0 0 40 40" fill="none" xmlns="http://www.w3.org/2000/svg">
<rect width="40" height="40" rx="20" fill="#FFF3F0"/>
<path d="M25.4263 31.664H14.5736C10.8403 31.664 8.33331 29.157 8.33331 25.4237V19.9973C8.33331 16.6547 10.3953 14.2345 13.5969 13.833C13.9008 13.7896 14.2372 13.757 14.5736 13.757H25.4263C25.6868 13.757 26.0232 13.7679 26.3705 13.8221C29.5721 14.1911 31.6666 16.6221 31.6666 19.9973V25.4237C31.6666 29.157 29.1597 31.664 25.4263 31.664ZM14.5736 15.3849C14.3132 15.3849 14.0635 15.4066 13.8139 15.4392C11.4263 15.743 9.96122 17.4795 9.96122 19.9973V25.4237C9.96122 28.2237 11.7736 30.0361 14.5736 30.0361H25.4263C28.2263 30.0361 30.0387 28.2237 30.0387 25.4237V19.9973C30.0387 17.4578 28.5519 15.7105 26.1426 15.4283C25.8822 15.3849 25.6542 15.3849 25.4263 15.3849H14.5736Z" fill="#FF704D"/>
<path d="M13.6946 15.45C13.4341 15.45 13.1954 15.3307 13.0326 15.1136C12.8481 14.864 12.8264 14.5384 12.9675 14.2671C13.152 13.8981 13.4124 13.54 13.7489 13.2144L17.276 9.6764C19.0775 7.8857 22.0078 7.8857 23.8093 9.6764L25.7086 11.5973C26.5117 12.3896 27 13.4532 27.0543 14.5818C27.0651 14.8315 26.9675 15.0702 26.783 15.233C26.5985 15.3958 26.3489 15.4718 26.1101 15.4284C25.8931 15.3958 25.6651 15.3849 25.4263 15.3849H14.5736C14.3132 15.3849 14.0635 15.4066 13.8139 15.4392C13.7814 15.45 13.738 15.45 13.6946 15.45ZM15.507 13.757H25.231C25.09 13.388 24.862 13.0516 24.5582 12.7477L22.6481 10.816C21.4869 9.66556 19.5876 9.66556 18.4155 10.816L15.507 13.757Z" fill="#FF704D"/>
<path d="M30.8527 25.695H27.5969C25.9473 25.695 24.6124 24.3601 24.6124 22.7105C24.6124 21.0609 25.9473 19.726 27.5969 19.726H30.8527C31.2977 19.726 31.6666 20.095 31.6666 20.54C31.6666 20.9849 31.2977 21.3539 30.8527 21.3539H27.5969C26.848 21.3539 26.2403 21.9617 26.2403 22.7105C26.2403 23.4593 26.848 24.0671 27.5969 24.0671H30.8527C31.2977 24.0671 31.6666 24.4361 31.6666 24.881C31.6666 25.326 31.2977 25.695 30.8527 25.695Z" fill="#FF704D"/>
</svg>
